<svg width="464" height="462" viewBox="0 0 464 462" fill="none" xmlns="http://www.w3.org/2000/svg">
<path d="M7.5 305.867V11.4921C7.5 9.11917 10.1246 7.68554 12.1212 8.96781L232.5 150.5L451.371 8.99268C453.367 7.70211 456 9.13498 456 11.512V305.873C456 306.888 455.487 307.834 454.637 308.387L232.5 453L8.87094 308.387C8.01617 307.834 7.5 306.885 7.5 305.867Z" fill="white" fill-opacity="0.91"/>
<path d="M232.5 453L8.87094 308.387C8.01617 307.834 7.5 306.885 7.5 305.867V11.4921C7.5 9.11917 10.1246 7.68554 12.1212 8.96781L232.5 150.5M232.5 453L454.637 308.387C455.487 307.834 456 306.888 456 305.873V11.512C456 9.13498 453.367 7.70211 451.371 8.99268L232.5 150.5M232.5 453V150.5" stroke="white" stroke-width="15"/>
</svg>
