<svg width="439" height="79" viewBox="0 0 439 79" fill="none" xmlns="http://www.w3.org/2000/svg">
<g filter="url(#filter0_i)">
<path d="M53.7129 76H50.4902L45.3145 68.8223C44.0449 69.9616 42.694 71.0358 41.2617 72.0449C39.862 73.0215 38.3809 73.8841 36.8184 74.6328C35.2559 75.349 33.6445 75.9186 31.9844 76.3418C30.3568 76.765 28.6966 76.9766 27.0039 76.9766C23.3255 76.9766 19.8587 76.3581 16.6035 75.1211C13.3809 73.8841 10.5488 72.0938 8.10742 69.75C5.69857 67.3737 3.79427 64.4766 2.39453 61.0586C0.994792 57.6406 0.294922 53.7507 0.294922 49.3887C0.294922 45.3197 0.994792 41.5924 2.39453 38.207C3.79427 34.7891 5.69857 31.8594 8.10742 29.418C10.5488 26.9766 13.3809 25.0885 16.6035 23.7539C19.8587 22.3867 23.3255 21.7031 27.0039 21.7031C28.6966 21.7031 30.373 21.9147 32.0332 22.3379C33.6934 22.7611 35.3047 23.347 36.8672 24.0957C38.4297 24.8444 39.9108 25.7233 41.3105 26.7324C42.7428 27.7415 44.0775 28.832 45.3145 30.0039L50.4902 23.8027H53.7129V76ZM40.2852 49.3887C40.2852 47.5658 39.9271 45.8079 39.2109 44.1152C38.5273 42.39 37.5833 40.8763 36.3789 39.5742C35.1745 38.2396 33.7585 37.1816 32.1309 36.4004C30.5358 35.5866 28.8268 35.1797 27.0039 35.1797C25.181 35.1797 23.4557 35.4889 21.8281 36.1074C20.2331 36.7259 18.8333 37.6374 17.6289 38.8418C16.457 40.0462 15.5293 41.5436 14.8457 43.334C14.1621 45.0918 13.8203 47.11 13.8203 49.3887C13.8203 51.6673 14.1621 53.7018 14.8457 55.4922C15.5293 57.25 16.457 58.7311 17.6289 59.9355C18.8333 61.14 20.2331 62.0514 21.8281 62.6699C23.4557 63.2884 25.181 63.5977 27.0039 63.5977C28.8268 63.5977 30.5358 63.207 32.1309 62.4258C33.7585 61.612 35.1745 60.554 36.3789 59.252C37.5833 57.9173 38.5273 56.4036 39.2109 54.7109C39.9271 52.9857 40.2852 51.2116 40.2852 49.3887ZM77.248 76H63.918V23.7051H67.1406L71.5352 28.7832C73.6836 26.8301 76.1087 25.3327 78.8105 24.291C81.5449 23.2168 84.3932 22.6797 87.3555 22.6797C90.5456 22.6797 93.5566 23.2982 96.3887 24.5352C99.2207 25.7396 101.695 27.416 103.811 29.5645C105.926 31.6803 107.587 34.1706 108.791 37.0352C110.028 39.8672 110.646 42.8945 110.646 46.1172V76H97.3164V46.1172C97.3164 44.75 97.056 43.4642 96.5352 42.2598C96.0143 41.0228 95.2982 39.9486 94.3867 39.0371C93.4753 38.1257 92.4173 37.4095 91.2129 36.8887C90.0085 36.3678 88.7227 36.1074 87.3555 36.1074C85.9557 36.1074 84.6374 36.3678 83.4004 36.8887C82.1634 37.4095 81.0892 38.1257 80.1777 39.0371C79.2663 39.9486 78.5501 41.0228 78.0293 42.2598C77.5085 43.4642 77.248 44.75 77.248 46.1172V76ZM170.705 76H167.482L162.307 68.8223C161.037 69.9616 159.686 71.0358 158.254 72.0449C156.854 73.0215 155.373 73.8841 153.811 74.6328C152.248 75.349 150.637 75.9186 148.977 76.3418C147.349 76.765 145.689 76.9766 143.996 76.9766C140.318 76.9766 136.851 76.293 133.596 74.9258C130.373 73.526 127.541 71.6055 125.1 69.1641C122.691 66.6901 120.786 63.7767 119.387 60.4238C117.987 57.0384 117.287 53.36 117.287 49.3887C117.287 45.4499 117.987 41.7878 119.387 38.4023C120.786 35.0169 122.691 32.0872 125.1 29.6133C127.541 27.1393 130.373 25.2025 133.596 23.8027C136.851 22.403 140.318 21.7031 143.996 21.7031C145.168 21.7031 146.372 21.8008 147.609 21.9961C148.879 22.1914 150.1 22.5169 151.271 22.9727C152.476 23.3958 153.599 23.9655 154.641 24.6816C155.682 25.3978 156.561 26.2767 157.277 27.3184V2.9043H170.705V76ZM157.277 49.3887C157.277 47.5658 156.919 45.8079 156.203 44.1152C155.52 42.39 154.576 40.8763 153.371 39.5742C152.167 38.2396 150.751 37.1816 149.123 36.4004C147.528 35.5866 145.819 35.1797 143.996 35.1797C142.173 35.1797 140.448 35.5052 138.82 36.1562C137.225 36.8073 135.826 37.7513 134.621 38.9883C133.449 40.1927 132.521 41.6738 131.838 43.4316C131.154 45.1895 130.812 47.1751 130.812 49.3887C130.812 51.3092 131.154 53.1322 131.838 54.8574C132.521 56.5827 133.449 58.0964 134.621 59.3984C135.826 60.7005 137.225 61.7259 138.82 62.4746C140.448 63.2233 142.173 63.5977 143.996 63.5977C145.819 63.5977 147.528 63.207 149.123 62.4258C150.751 61.612 152.167 60.554 153.371 59.252C154.576 57.9173 155.52 56.4036 156.203 54.7109C156.919 52.9857 157.277 51.2116 157.277 49.3887ZM194.24 76H180.91V23.7051H184.133L188.527 29.9062C190.676 27.9531 193.117 26.4557 195.852 25.4141C198.586 24.3398 201.418 23.8027 204.348 23.8027H216.115V37.084H204.348C202.948 37.084 201.63 37.3444 200.393 37.8652C199.156 38.3861 198.081 39.1022 197.17 40.0137C196.258 40.9251 195.542 41.9993 195.021 43.2363C194.501 44.4733 194.24 45.7917 194.24 47.1914V76ZM238.039 9.49609C238.039 10.7331 237.795 11.8887 237.307 12.9629C236.851 14.0371 236.216 14.9811 235.402 15.7949C234.589 16.5762 233.628 17.2109 232.521 17.6992C231.447 18.1549 230.292 18.3828 229.055 18.3828C227.818 18.3828 226.646 18.1549 225.539 17.6992C224.465 17.2109 223.521 16.5762 222.707 15.7949C221.926 14.9811 221.291 14.0371 220.803 12.9629C220.347 11.8887 220.119 10.7331 220.119 9.49609C220.119 8.29167 220.347 7.15234 220.803 6.07812C221.291 4.97135 221.926 4.02734 222.707 3.24609C223.521 2.43229 224.465 1.79753 225.539 1.3418C226.646 0.853516 227.818 0.609375 229.055 0.609375C230.292 0.609375 231.447 0.853516 232.521 1.3418C233.628 1.79753 234.589 2.43229 235.402 3.24609C236.216 4.02734 236.851 4.97135 237.307 6.07812C237.795 7.15234 238.039 8.29167 238.039 9.49609ZM235.744 76H222.316V23.7051H235.744V76ZM261.672 9.49609C261.672 10.7331 261.428 11.8887 260.939 12.9629C260.484 14.0371 259.849 14.9811 259.035 15.7949C258.221 16.5762 257.261 17.2109 256.154 17.6992C255.08 18.1549 253.924 18.3828 252.688 18.3828C251.451 18.3828 250.279 18.1549 249.172 17.6992C248.098 17.2109 247.154 16.5762 246.34 15.7949C245.559 14.9811 244.924 14.0371 244.436 12.9629C243.98 11.8887 243.752 10.7331 243.752 9.49609C243.752 8.29167 243.98 7.15234 244.436 6.07812C244.924 4.97135 245.559 4.02734 246.34 3.24609C247.154 2.43229 248.098 1.79753 249.172 1.3418C250.279 0.853516 251.451 0.609375 252.688 0.609375C253.924 0.609375 255.08 0.853516 256.154 1.3418C257.261 1.79753 258.221 2.43229 259.035 3.24609C259.849 4.02734 260.484 4.97135 260.939 6.07812C261.428 7.15234 261.672 8.29167 261.672 9.49609ZM259.377 76H245.949V23.7051H259.377V76ZM317.824 26.9766C317.824 29.8737 317.271 32.6081 316.164 35.1797C315.057 37.7188 313.544 39.9486 311.623 41.8691C309.735 43.7572 307.521 45.2546 304.982 46.3613C302.443 47.4681 299.725 48.0215 296.828 48.0215H289.797C288.82 48.0215 287.909 48.2005 287.062 48.5586C286.216 48.9167 285.467 49.4212 284.816 50.0723C284.198 50.6908 283.71 51.4232 283.352 52.2695C282.993 53.1159 282.814 54.0273 282.814 55.0039V61.9863H315.92V76H268.801V55.0039C268.801 52.1068 269.354 49.3887 270.461 46.8496C271.568 44.278 273.065 42.0482 274.953 40.1602C276.874 38.2396 279.104 36.7422 281.643 35.668C284.182 34.5612 286.9 34.0078 289.797 34.0078H296.828C297.805 34.0078 298.716 33.8288 299.562 33.4707C300.409 33.1126 301.141 32.6243 301.76 32.0059C302.411 31.3548 302.915 30.6061 303.273 29.7598C303.632 28.8809 303.811 27.9531 303.811 26.9766C303.811 26 303.632 25.0885 303.273 24.2422C302.915 23.3958 302.411 22.6634 301.76 22.0449C301.141 21.3939 300.409 20.8893 299.562 20.5312C298.716 20.1732 297.805 19.9941 296.828 19.9941H271.828V5.98047H296.828C299.725 5.98047 302.443 6.53385 304.982 7.64062C307.521 8.7474 309.735 10.2611 311.623 12.1816C313.544 14.0697 315.057 16.2832 316.164 18.8223C317.271 21.3613 317.824 24.0794 317.824 26.9766ZM376.711 53.9785C376.711 57.3965 376.109 60.4727 374.904 63.207C373.7 65.9414 372.089 68.2526 370.07 70.1406C368.052 72.0286 365.708 73.4772 363.039 74.4863C360.402 75.4954 357.635 76 354.738 76H326.516V61.9863H354.738C355.682 61.9863 356.626 61.8398 357.57 61.5469C358.547 61.2539 359.41 60.7819 360.158 60.1309C360.939 59.4798 361.558 58.6497 362.014 57.6406C362.502 56.6315 362.746 55.4108 362.746 53.9785C362.746 52.6764 362.502 51.5371 362.014 50.5605C361.558 49.5514 360.939 48.7214 360.158 48.0703C359.41 47.3867 358.547 46.8822 357.57 46.5566C356.626 46.1986 355.682 46.0195 354.738 46.0195H326.516L330.617 5.98047H373.83V19.9941H343.215L341.945 32.0059H354.738C357.635 32.0059 360.402 32.5104 363.039 33.5195C365.708 34.5286 368.052 35.9935 370.07 37.9141C372.089 39.8021 373.7 42.1133 374.904 44.8477C376.109 47.5495 376.711 50.5931 376.711 53.9785ZM438.332 50.3164C438.332 54.0924 437.648 57.6569 436.281 61.0098C434.947 64.3626 433.091 67.3086 430.715 69.8477C428.339 72.3542 425.507 74.3398 422.219 75.8047C418.964 77.2695 415.432 78.002 411.623 78.002C407.814 78.002 404.217 77.2695 400.832 75.8047C397.479 74.3398 394.549 72.3542 392.043 69.8477C389.536 67.3086 387.551 64.3626 386.086 61.0098C384.654 57.6569 383.938 54.0924 383.938 50.3164C383.938 45.8242 384.377 41.446 385.256 37.1816C386.135 32.8848 387.421 28.832 389.113 25.0234C390.806 21.1823 392.873 17.6504 395.314 14.4277C397.756 11.2051 400.523 8.38932 403.615 5.98047H422.512C420.559 7.25 418.654 8.66602 416.799 10.2285C414.943 11.791 413.169 13.4674 411.477 15.2578C409.816 17.0482 408.27 18.9362 406.838 20.9219C405.406 22.9076 404.136 24.9746 403.029 27.123C404.429 26.179 405.943 25.3815 407.57 24.7305C409.23 24.0469 410.923 23.7051 412.648 23.7051C416.587 23.7051 420.135 24.3724 423.293 25.707C426.483 27.0091 429.185 28.8483 431.398 31.2246C433.612 33.5684 435.321 36.3678 436.525 39.623C437.73 42.8783 438.332 46.4427 438.332 50.3164ZM424.318 50.3164C424.318 48.4609 424.009 46.7194 423.391 45.0918C422.805 43.4316 421.958 41.9831 420.852 40.7461C419.745 39.4766 418.41 38.4837 416.848 37.7676C415.285 37.0514 413.544 36.6934 411.623 36.6934C409.702 36.6934 407.961 37.0514 406.398 37.7676C404.836 38.4837 403.501 39.4766 402.395 40.7461C401.32 41.9831 400.49 43.4316 399.904 45.0918C399.318 46.7194 399.025 48.4609 399.025 50.3164C399.025 52.1068 399.318 53.832 399.904 55.4922C400.523 57.1198 401.385 58.5684 402.492 59.8379C403.599 61.1074 404.917 62.1165 406.447 62.8652C408.01 63.6139 409.735 63.9883 411.623 63.9883C413.544 63.9883 415.285 63.6302 416.848 62.9141C418.41 62.1979 419.745 61.2214 420.852 59.9844C421.958 58.7148 422.805 57.25 423.391 55.5898C424.009 53.9297 424.318 52.1719 424.318 50.3164Z" fill="#256256"/>
</g>
<defs>
<filter id="filter0_i" x="0.294922" y="0.609375" width="438.037" height="81.3926" filterUnits="userSpaceOnUse" color-interpolation-filters="sRGB">
<feFlood flood-opacity="0" result="BackgroundImageFix"/>
<feBlend mode="normal" in="SourceGraphic" in2="BackgroundImageFix" result="shape"/>
<feColorMatrix in="SourceAlpha" type="matrix" values="0 0 0 0 0 0 0 0 0 0 0 0 0 0 0 0 0 0 127 0" result="hardAlpha"/>
<feOffset dy="4"/>
<feGaussianBlur stdDeviation="2"/>
<feComposite in2="hardAlpha" operator="arithmetic" k2="-1" k3="1"/>
<feColorMatrix type="matrix" values="0 0 0 0 0 0 0 0 0 0 0 0 0 0 0 0 0 0 0.25 0"/>
<feBlend mode="normal" in2="shape" result="effect1_innerShadow"/>
</filter>
</defs>
</svg>
